<svg xmlns="http://www.w3.org/2000/svg" width="32" height="32" viewBox="0 0 32 32" fill="currentColor">
  <path fill-rule="evenodd" clip-rule="evenodd" d="M10.3333 3.21289C10.7475 3.21289 11.0833 3.54868 11.0833 3.96289V4.49087H20.25V3.96289C20.25 3.54868 20.5858 3.21289 21 3.21289C21.4142 3.21289 21.75 3.54868 21.75 3.96289V4.49087H22.3333C24.9266 4.49087 27.0833 6.51334 27.0833 9.07482V12.9088C27.0833 13.323 26.7475 13.6588 26.3333 13.6588C25.9191 13.6588 25.5833 13.323 25.5833 12.9088V12.3808H5.75V20.5766C5.75 22.2504 7.17459 23.6606 9 23.6606H14.3333C14.7475 23.6606 15.0833 23.9964 15.0833 24.4106C15.0833 24.8248 14.7475 25.1606 14.3333 25.1606H9C6.40674 25.1606 4.25 23.1381 4.25 20.5766V9.07482C4.25 6.51334 6.40674 4.49087 9 4.49087H9.58333V3.96289C9.58333 3.54868 9.91912 3.21289 10.3333 3.21289ZM9.58333 5.99087H9C7.17459 5.99087 5.75 7.40107 5.75 9.07482V10.8808H25.5833V9.07482C25.5833 7.40107 24.1587 5.99087 22.3333 5.99087H21.75V6.51885C21.75 6.93307 21.4142 7.26885 21 7.26885C20.5858 7.26885 20.25 6.93307 20.25 6.51885V5.99087H11.0833V6.51885C11.0833 6.93307 10.7475 7.26885 10.3333 7.26885C9.91912 7.26885 9.58333 6.93307 9.58333 6.51885V5.99087ZM24.3378 17.4927C21.477 17.4893 19.0833 19.827 19.0833 22.4936C19.0833 25.2267 21.4038 27.4945 24.3333 27.4945C27.264 27.4945 29.5833 25.2256 29.5833 22.4936C29.5833 19.7626 27.266 17.495 24.3378 17.4927ZM24.3392 15.9927C20.7095 15.9886 17.5833 18.9392 17.5833 22.4936C17.5833 26.1147 20.6362 28.9945 24.3333 28.9945C28.032 28.9945 31.0833 26.1132 31.0833 22.4936C31.0833 18.8756 28.0351 15.9956 24.3392 15.9927ZM24.1905 19.8049C24.6047 19.8049 24.9405 20.1407 24.9405 20.5549V22.3713L26.4117 23.2315C26.7693 23.4405 26.8897 23.8999 26.6807 24.2575C26.4716 24.615 26.0122 24.7354 25.6546 24.5264L23.812 23.449C23.5819 23.3145 23.4405 23.0681 23.4405 22.8016V20.5549C23.4405 20.1407 23.7763 19.8049 24.1905 19.8049Z" fill="currentColor"></path>
</svg>