<svg xmlns="http://www.w3.org/2000/svg" width="32" height="32" viewBox="0 0 32 32" fill="currentColor">
  <path fill-rule="evenodd" clip-rule="evenodd" d="M11.5576 6.49813C11.8347 6.80593 11.8099 7.28015 11.5021 7.55734L8.17512 10.5533C7.88988 10.8102 7.45674 10.8102 7.17146 10.5534L5.51846 9.06543C5.2106 8.7883 5.18569 8.31408 5.46282 8.00623C5.73994 7.69837 6.21416 7.67346 6.52202 7.95059L7.67315 8.98681L10.4984 6.44268C10.8062 6.1655 11.2804 6.19032 11.5576 6.49813ZM13.2502 9.00001C13.2502 8.58579 13.586 8.25001 14.0002 8.25001H24.0002C24.4145 8.25001 24.7502 8.58579 24.7502 9.00001C24.7502 9.41422 24.4145 9.75001 24.0002 9.75001H14.0002C13.586 9.75001 13.2502 9.41422 13.2502 9.00001ZM8.88391 15.1163C8.3958 14.6282 7.60468 14.6282 7.11657 15.1163C6.62846 15.6044 6.62846 16.3956 7.11657 16.8837C7.60468 17.3718 8.3958 17.3718 8.88391 16.8837C9.37201 16.3956 9.37201 15.6044 8.88391 15.1163ZM6.05591 14.0557C7.1298 12.9818 8.87068 12.9818 9.94457 14.0557C11.0185 15.1296 11.0185 16.8704 9.94457 17.9443C8.87068 19.0182 7.1298 19.0182 6.05591 17.9443C4.98201 16.8704 4.98201 15.1296 6.05591 14.0557ZM13.2502 16C13.2502 15.5858 13.586 15.25 14.0002 15.25H24.0002C24.4145 15.25 24.7502 15.5858 24.7502 16C24.7502 16.4142 24.4145 16.75 24.0002 16.75H14.0002C13.586 16.75 13.2502 16.4142 13.2502 16ZM8.88391 22.1163C8.3958 21.6282 7.60468 21.6282 7.11657 22.1163C6.62846 22.6044 6.62846 23.3956 7.11657 23.8837C7.60468 24.3718 8.3958 24.3718 8.88391 23.8837C9.37201 23.3956 9.37201 22.6044 8.88391 22.1163ZM6.05591 21.0557C7.1298 19.9818 8.87068 19.9818 9.94457 21.0557C11.0185 22.1296 11.0185 23.8704 9.94457 24.9443C8.87068 26.0182 7.1298 26.0182 6.05591 24.9443C4.98201 23.8704 4.98201 22.1296 6.05591 21.0557ZM13.2502 23C13.2502 22.5858 13.586 22.25 14.0002 22.25H24.0002C24.4145 22.25 24.7502 22.5858 24.7502 23C24.7502 23.4142 24.4145 23.75 24.0002 23.75H14.0002C13.586 23.75 13.2502 23.4142 13.2502 23Z" fill="currentColor"></path>
</svg>