<svg xmlns="http://www.w3.org/2000/svg" width="32" height="33" viewBox="0 0 32 33" fill="currentColor">
  <path fill-rule="evenodd" clip-rule="evenodd" d="M18.2676 10.4998C17.015 9.25145 14.984 9.25145 13.7314 10.4998C12.4787 11.7482 12.4787 13.7722 13.7314 15.0205C14.984 16.2689 17.015 16.2689 18.2676 15.0205C19.5202 13.7722 19.5202 11.7482 18.2676 10.4998ZM12.6081 9.38041C14.4811 7.51382 17.5179 7.51382 19.3908 9.38041C21.2638 11.247 21.2638 14.2733 19.3908 16.1399C17.5179 18.0065 14.4811 18.0065 12.6081 16.1399C10.7352 14.2733 10.7352 11.247 12.6081 9.38041ZM22.8476 10.0694C22.8563 9.63232 23.2189 9.28503 23.6574 9.29369C24.6494 9.31329 25.6378 9.70092 26.3953 10.4558C27.9512 12.0064 27.9512 14.5204 26.3953 16.071C25.6378 16.8259 24.6494 17.2136 23.6574 17.2332C23.2189 17.2418 22.8563 16.8945 22.8476 16.4575C22.8389 16.0204 23.1874 15.6591 23.626 15.6504C24.2241 15.6386 24.8162 15.4059 25.2721 14.9516C26.2076 14.0193 26.2076 12.5076 25.2721 11.5752C24.8162 11.121 24.2241 10.8883 23.626 10.8765C23.1874 10.8678 22.8389 10.5065 22.8476 10.0694ZM9.15385 10.0697C9.16254 10.5068 8.81406 10.8681 8.37549 10.8768C7.77737 10.8886 7.18525 11.1213 6.72939 11.5756C5.79384 12.5079 5.79384 14.0196 6.72939 14.9519C7.18525 15.4062 7.77737 15.6389 8.37549 15.6507C8.81406 15.6594 9.16254 16.0207 9.15385 16.4578C9.14515 16.8949 8.78258 17.2421 8.34401 17.2335C7.35207 17.2139 6.36367 16.8263 5.60615 16.0713C4.05025 14.5207 4.05025 12.0067 5.60615 10.4562C6.36367 9.70124 7.35207 9.3136 8.34401 9.29401C8.78258 9.28535 9.14515 9.63264 9.15385 10.0697ZM22.7839 19.4317C22.7839 18.9946 23.1395 18.6402 23.5782 18.6402H25.454C27.9646 18.6402 30 20.6686 30 23.1706C30 23.6077 29.6444 23.9621 29.2057 23.9621C28.7671 23.9621 28.4115 23.6077 28.4115 23.1706C28.4115 21.543 27.0873 20.2233 25.454 20.2233H23.5782C23.1395 20.2233 22.7839 19.8689 22.7839 19.4317ZM2 23.1712C2 20.6692 4.03542 18.6408 6.54595 18.6408H8.4218C8.86045 18.6408 9.21605 18.9952 9.21605 19.4323C9.21605 19.8695 8.86045 20.2239 8.4218 20.2239H6.54595C4.91273 20.2239 3.5885 21.5436 3.5885 23.1712C3.5885 23.6084 3.2329 23.9627 2.79425 23.9627C2.3556 23.9627 2 23.6084 2 23.1712ZM13.6462 21.2899C11.4856 21.2899 9.73383 23.0357 9.73383 25.1889C9.73383 25.6261 9.37823 25.9805 8.93958 25.9805C8.50093 25.9805 8.14533 25.6261 8.14533 25.1889C8.14533 22.1614 10.6083 19.7068 13.6462 19.7068H18.3529C21.3908 19.7068 23.8538 22.1614 23.8538 25.1889C23.8538 25.6261 23.4982 25.9805 23.0596 25.9805C22.6209 25.9805 22.2653 25.6261 22.2653 25.1889C22.2653 23.0357 20.5135 21.2899 18.3529 21.2899H13.6462Z" fill="currentColor"></path>
</svg>